<svg width="2919" height="1740" viewBox="0 0 2919 1740" fill="none" xmlns="http://www.w3.org/2000/svg">
<g clip-path="url(#clip0_857_96)">
<path d="M454 1390V350H1182.83V1390H454V1390ZM1077.45 1285.22V454.924H559.041V1285.45H1077.45V1285.22Z" fill="#FFD700"/>
</g>
<g clip-path="url(#clip1_857_96)">
<path d="M2105.83 591.259C2103.33 605.928 2102.28 641.882 2123.38 637.28C2151.47 631.24 2147.73 628.364 2163.17 614.941C2173.44 605.928 2198.56 630.473 2163.56 669.495C2144.47 690.876 2140.25 697.396 2150.52 709.764C2161.16 722.612 2188.87 727.502 2188.87 767.004C2188.87 801.712 2233.37 776.592 2244.21 762.977C2254.76 749.746 2262.52 689.438 2292.54 733.351C2313.83 764.607 2277.48 831.434 2321.21 838.05C2357.18 843.419 2363.41 884.455 2364.46 894.81C2364.56 896.248 2364.66 897.207 2364.66 897.207C2456.53 808.999 2395.34 694.807 2393.04 681.001C2389.11 656.264 2402.44 665.277 2418.84 680.521C2351.13 553.482 2217.36 467 2063.44 467C2036.88 467 2010.89 469.685 1985.76 474.574C2065.07 476.204 2120.5 507.94 2105.92 591.259H2105.83Z" fill="white"/>
<path d="M2316.99 1076.5C2292.25 1086.38 2281.61 1070.56 2263.2 1088.48C2243.06 1108.14 2307.5 1146.78 2188.87 1119.74C2135.84 1107.66 2143.13 1165.28 2083.58 1134.99C2067.08 1095.77 2066.6 1072.66 2080.7 1048.12C2097.1 1019.36 2103.05 1029.04 2093.07 997.4C2089.14 985.032 2092.98 979.567 2099.5 962.309C2106.02 945.146 2097.68 921.273 2073.41 922.615C2041.19 924.437 2044.93 939.01 2024.98 952.433C2011.66 961.35 1989.12 915.999 2036.3 875.155C2062.1 852.911 2068.14 845.72 2059.7 828.558C2050.88 810.725 2034.48 817.148 2027.96 796.63C2022.88 780.906 2030.74 751.28 2008.11 744.185C1982.41 736.131 1961.88 772.853 1947.02 787.33C1929.76 804.109 1910.87 834.023 1901.56 810.149C1885.07 767.675 1960.92 704.299 1914.13 687.521C1870.11 671.701 1855.72 625.487 1855.72 625.487C1734.89 715.134 1792.14 793.946 1782.07 807.848C1772.01 821.847 1752.63 790.878 1736.33 805.643C1723.77 817.053 1712.55 890.304 1789.94 936.805C1819.28 954.447 1828.87 958.953 1821.87 969.595C1816.21 978.033 1792.82 970.938 1793.1 990.305C1793.87 1029.14 1856.2 1017.44 1867.52 1066.15C1878.17 1111.59 2071.4 1138.73 2071.4 1138.73C2071.21 1138.53 2072.26 1138.73 2073.8 1139.3L2083 1144.38C2085.88 1156.37 2097.39 1183.79 2124.24 1197.59C2168.74 1220.51 2121.55 1209.48 2127.6 1225.59C2130.66 1233.84 2162.22 1255.12 2218.32 1242.18C2295.9 1209.77 2361.11 1153.87 2405.13 1083.31C2357.18 1045.82 2353.53 1053.58 2317.09 1076.5H2316.99Z" fill="white"/>
<path d="M2073.7 1139.3C2072.17 1138.82 2071.02 1138.53 2071.3 1138.73C2071.3 1138.73 1878.07 1111.59 1867.42 1066.15C1856.11 1017.53 1793.77 1029.14 1793.01 990.305C1792.62 970.938 1816.12 978.033 1821.78 969.595C1828.78 958.953 1819.19 954.447 1789.84 936.805C1712.45 890.304 1723.67 817.053 1736.24 805.643C1752.54 790.878 1771.91 821.751 1781.98 807.848C1792.05 793.85 1734.8 715.038 1855.63 625.487C1855.63 625.487 1869.92 671.701 1914.03 687.521C1960.73 704.299 1884.97 767.675 1901.47 810.149C1910.77 834.023 1929.66 804.109 1946.92 787.33C1961.79 772.949 1982.21 736.227 2008.01 744.185C2030.64 751.28 2022.78 780.906 2027.86 796.631C2034.48 817.149 2050.78 810.725 2059.6 828.558C2068.14 845.72 2062.1 852.911 2036.21 875.155C1989.02 915.999 2011.56 961.35 2024.89 952.433C2044.74 939.106 2041 924.437 2073.32 922.615C2097.58 921.273 2105.92 945.146 2099.4 962.309C2092.88 979.471 2089.04 985.032 2092.98 997.4C2102.95 1029.04 2097.1 1019.36 2080.61 1048.12C2066.51 1072.66 2067.08 1095.77 2083.48 1134.99C2142.94 1165.19 2135.75 1107.66 2188.78 1119.74C2307.41 1146.78 2242.96 1108.14 2263.1 1088.48C2281.42 1070.56 2292.16 1086.38 2316.9 1076.5C2353.53 1053.58 2356.98 1045.72 2405.22 1083.5C2443.96 1021.56 2466.5 948.406 2466.5 870.073C2466.5 801.904 2449.43 737.665 2419.51 681.289C2402.73 665.66 2388.82 655.881 2392.85 681.097C2395.15 694.999 2456.33 809.095 2364.46 897.303C2364.46 897.303 2364.46 896.344 2364.27 894.906C2363.22 884.455 2356.98 843.515 2321.02 838.146C2277.29 831.626 2313.64 764.703 2292.35 733.447C2262.33 689.534 2254.57 749.842 2244.02 763.073C2233.28 776.592 2188.68 801.712 2188.68 767.1C2188.68 727.598 2160.97 722.708 2150.32 709.86C2140.06 697.492 2144.28 690.972 2163.37 669.591C2198.37 630.569 2173.15 606.024 2162.98 615.037C2147.64 628.46 2151.28 631.336 2123.18 637.376C2102.18 641.978 2103.14 606.024 2105.64 591.355C2120.12 507.94 2064.69 476.3 1985.19 474.67C1799.82 511.008 1660 674.194 1660 870.169C1660 1092.8 1840.48 1273.24 2063.15 1273.24C2118.1 1273.24 2170.46 1262.22 2218.22 1242.27C2162.02 1255.31 2130.38 1233.93 2127.31 1225.78C2121.27 1209.68 2168.45 1220.7 2123.95 1197.79C2097.1 1183.98 2085.59 1156.56 2082.72 1144.57L2073.51 1139.49L2073.7 1139.3Z" fill="#49A942"/>
<path d="M2096.43 1151.57C2096.43 1151.57 1831.46 1048.7 1822.26 788.001C1822.26 788.001 1847.86 986.182 2096.43 1151.57Z" fill="#49A942"/>
<path d="M2094.42 467.575C2101.99 468.438 2159.05 476.013 2219.27 514.46C2241.71 535.457 2273.36 586.944 2224.45 692.41C2224.45 692.41 2287.17 607.75 2271.35 556.359C2324 609.092 2368.2 692.794 2369.83 825.394C2369.83 825.394 2428.33 493.271 2094.32 467.575H2094.42Z" fill="#49A942"/>
<path d="M2359.38 1126.45C2339.15 1138.73 2306.35 1167.58 2252.74 1150.71C2252.74 1150.71 2273.74 1166.82 2307.5 1165.95C2264.44 1188.2 2217.84 1193.47 2143.99 1174.97C2143.99 1174.97 2293.5 1263.08 2397.93 1094.43C2397.93 1094.43 2372.04 1118.78 2359.48 1126.36L2359.38 1126.45Z" fill="#49A942"/>
<path d="M2426.7 547.826C2403.59 547.826 2387.67 531.814 2387.67 507.748C2387.67 483.683 2403.88 467.575 2426.89 467.575C2449.91 467.575 2465.92 483.779 2465.92 507.844C2465.92 531.91 2449.53 547.921 2426.7 547.921V547.826ZM2426.89 472.177C2408.1 472.177 2393.23 484.929 2393.23 507.748C2393.23 530.567 2408.29 543.127 2426.7 543.127C2445.11 543.127 2460.36 530.376 2460.36 507.748C2460.36 485.121 2445.31 472.177 2426.89 472.177ZM2436.2 528.458L2424.98 511.583H2421.72V528.458H2411.84V484.162H2426.99C2437.16 484.162 2443.39 488.956 2443.39 497.585C2443.39 504.009 2439.94 507.94 2434.95 509.858L2447.7 528.458H2436.1H2436.2ZM2426.32 492.024H2421.62V504.584H2426.13C2430.83 504.584 2433.51 502.475 2433.51 498.16C2433.51 494.229 2430.92 491.928 2426.22 491.928L2426.32 492.024Z" fill="white"/>
</g>
<defs>
<clipPath id="clip0_857_96">
<rect width="970" height="1040" fill="white" transform="translate(454 350)"/>
</clipPath>
<clipPath id="clip1_857_96">
<rect width="966" height="962" fill="white" transform="translate(1499 389)"/>
</clipPath>
</defs>
</svg>
