<?xml version="1.0" encoding="utf-8"?>
<!-- Generator: Adobe Illustrator 16.0.0, SVG Export Plug-In . SVG Version: 6.00 Build 0)  -->
<!DOCTYPE svg PUBLIC "-//W3C//DTD SVG 1.1//EN" "http://www.w3.org/Graphics/SVG/1.1/DTD/svg11.dtd">
<svg version="1.1" id="Layer_1" xmlns="http://www.w3.org/2000/svg" xmlns:xlink="http://www.w3.org/1999/xlink" x="0px" y="0px"
	 width="1000px" height="379.409px" viewBox="-196.799 205.649 1000 379.409"
	 enable-background="new -196.799 205.649 1000 379.409" xml:space="preserve">
<g>
	<path fill="#FFD700" d="M-196.799,585.059V205.649H67.94v379.409H-196.799z M29.663,546.831V243.927h-188.307v302.991H29.663
		V546.831z"/>
	<g>
		<path d="M201.01,399.126v37.971c-8.418,3.274-17.193,5.624-26.129,5.624c-27.077,0-44.185-20.984-44.185-48.049
			c0-25.108,16.985-47.053,44.677-47.053c8.493,0,17.108,3.2,22.4,7.139l-5.292,10.868c-4.308-2.584-10.831-4.85-16.862-4.85
			c-16.862,0-28.308,13.292-28.308,34.179c0,21.785,13.047,34.707,26.708,34.707c4.062,0,7.631-0.491,10.954-2.092v-28.308h15.754
			L201.01,399.126z"/>
		<polygon points="257.38,361.588 231.14,361.588 231.14,386.819 256.863,386.819 256.863,399.126 231.14,399.126 231.14,428.825 
			262.155,428.825 262.155,441.158 215.3,441.158 215.3,349.219 257.392,349.219 257.392,361.601 		"/>
		<path d="M305.97,429.601c-16.369,0-22.154-18.092-22.154-35.729c0-16.862,6.523-33.083,22.154-33.083
			c15.68,0,22.302,16.221,22.302,33.083c0,17.625-5.835,35.729-22.277,35.729H305.97z M305.97,442.733
			c24.124,0,39.052-21.415,39.052-48.862c0-25.674-16.541-46.24-39.04-46.24c-22.399,0-38.892,20.554-38.892,46.24
			c0,27.447,15.016,48.862,39.015,48.862H305.97z"/>
		<path d="M420.729,399.126v37.971c-8.42,3.274-17.282,5.624-26.143,5.624c-27.102,0-44.222-20.984-44.222-48.049
			c0-25.108,17.107-47.053,44.702-47.053c8.491,0,17.107,3.2,22.276,7.139l-5.169,10.868c-4.309-2.584-10.83-4.85-16.985-4.85
			c-16.737,0-28.185,13.292-28.185,34.179c0,21.785,13.169,34.707,26.708,34.707c4.186,0,7.754-0.491,11.078-2.092v-28.308h15.753
			L420.729,399.126z"/>
		<path d="M450.956,361.588h6.953c9.269,0,14.608,5.391,14.608,14.818c0,12.431-7.508,17.933-14.979,18.266
			c-1.525,0.123-5.316,0.295-6.597,0.369v-33.452H450.956z M490.833,441.17l-18.462-38.03c10.093-5.416,15.814-16.333,15.814-27.41
			c0-17.969-10.929-26.584-28.492-26.584h-24.517v91.938h15.753v-34.585h7.139l14.807,34.585h17.969L490.833,441.17z"/>
		<path d="M516.875,404.788c3.668-12.062,7.349-23.298,10.634-37.415h0.271c3.645,14.104,6.953,25.354,10.363,37.415H516.875
			L516.875,404.788z M522.93,349.207l-31.752,91.939h13.698l7.999-25.021h27.692l7.262,25.106h17.6l-29.292-91.938h-13.17
			L522.93,349.207z"/>
		<path d="M594.937,349.207h-24.538v91.968h15.699v-34.68h7.19c18.766,0,30.144-15.287,30.144-30.755
			C623.432,357.814,612.549,349.207,594.937,349.207z M592.661,394.671c-1.601,0.115-5.591,0.28-6.563,0.346v-33.41h7.141
			c9.201,0,14.363,5.375,14.363,14.792C607.602,388.817,600.181,394.358,592.661,394.671z"/>
		<polygon points="696.445,441.17 680.74,441.17 680.74,396.96 648.002,396.96 648.002,441.17 632.419,441.17 632.419,349.207 
			648.002,349.207 648.002,384.579 680.74,384.579 680.74,349.564 696.445,349.564 		"/>
		<path d="M711.559,349.207h15.705v91.939h-15.705V349.207z"/>
		<path d="M798.155,365.896c-3.742-2.375-10.092-5.107-16.086-5.107c-16.073,0-27.778,13.292-27.778,34.178
			c0,21.785,12.874,34.634,28.11,34.634c6.03,0,11.643-1.92,15.754-4.553l4.356,11.384c-4.677,3.322-13.168,6.399-20.676,6.399
			c-27.139,0-44.209-20.922-44.209-48c0-25.107,16.946-47.015,44.43-47.015c8.074,0,15.755,3.446,21.145,7.139l-5.046,11.199
			V365.896z"/>
	</g>
	<g>
		<path d="M210.709,322.179H199.3c-14.955-21.107-29.81-42.128-44.64-65.969h-0.148v65.969h-12.64v-91.987h11.508
			c14.929,20.997,29.809,41.969,44.406,65.576h0.344v-65.576h12.579V322.179z"/>
		<path d="M240.641,285.835c3.73-12.086,7.458-23.225,10.708-37.416h0.308c3.656,14.191,6.93,25.33,10.376,37.416H240.641z
			 M246.795,230.204l-31.877,91.975h13.723l7.963-25.046h27.766l7.175,25.046h17.601l-29.33-91.987h-13.046L246.795,230.204z"/>
		<polygon points="304.026,322.179 304.026,242.609 279.854,242.609 279.854,230.179 343.951,230.179 343.951,242.609 
			319.829,242.609 319.829,322.179 304.001,322.179 		"/>
		<path d="M349.097,230.191h15.569v91.987h-15.631L349.097,230.191z"/>
		<path d="M413.33,310.548c-16.393,0-22.153-18.006-22.153-35.644c0-16.91,6.498-33.107,22.153-33.107
			c15.632,0,22.154,16.197,22.154,33.107C435.484,292.542,429.761,310.548,413.33,310.548z M413.33,323.804
			c24.05,0,39.041-21.416,39.041-48.899c0-25.784-16.592-46.24-39.041-46.24c-22.437,0-38.99,20.456-38.99,46.24
			C374.34,302.4,389.281,323.804,413.33,323.804z"/>
		<path d="M530.795,322.179h-11.446c-14.916-21.107-29.785-42.128-44.603-65.969h-0.147v65.969h-12.554v-91.987h11.445
			c15.016,20.997,29.785,41.969,44.554,65.576h0.246v-65.576h12.678v91.987H530.795z"/>
		<path d="M560.702,285.835c3.754-12.086,7.447-23.225,10.66-37.416h0.244c3.754,14.191,7.017,25.33,10.389,37.416H560.702
			L560.702,285.835z M566.855,230.204l-31.876,91.975h13.637l8.062-25.046h27.741l7.189,25.046h17.636l-29.292-91.987h-13.046
			L566.855,230.204z"/>
		<polygon points="613.785,230.204 629.479,230.204 629.479,309.835 661.785,309.835 661.785,322.179 613.785,322.179 
			613.785,230.191 		"/>
	</g>
	<g>
		<path d="M177.7,484.543c-3.446-2.732-8.025-5.232-12.627-5.232c-6.56,0-10.118,4.345-10.118,9.724
			c0,6.031,5.539,10.634,14.585,19.176c10.486,9.846,16.124,17.576,16.124,28.875c0,11.444-9.428,24.859-27.028,24.859
			c-8.246,0-17.231-2.953-23.016-9.229l5.662-10.585c4.185,3.446,8.861,7.262,16,7.262c6.399,0,12.062-4.062,12.062-12.8
			c0-10.093-10.585-16.824-16.739-22.608c-7.631-7.177-13.908-12.802-13.908-25.023c0-12.332,10.461-22.313,24.615-22.313
			c8.861,0,16.123,3.816,19.815,8l-5.662,9.601L177.7,484.543z"/>
		<path d="M191.485,513.194c0-25.722,16.528-46.215,38.978-46.215s39.016,20.493,39.016,46.215
			c0,27.446-14.979,48.824-39.016,48.824c-24.036,0-38.991-21.39-38.991-48.824H191.485z M252.653,513.194
			c0-16.947-6.584-33.083-22.191-33.083c-15.63,0-22.191,16.123-22.191,33.083c0,17.6,5.785,35.717,22.191,35.717
			c16.394,0,22.154-18.128,22.154-35.717H252.653z"/>
		<path d="M334.523,485.22c-3.814-2.363-10.092-5.12-16.158-5.12c-16,0-27.693,13.169-27.693,34.091
			c0,21.786,12.886,34.586,28.086,34.586c6.031,0,11.693-1.97,15.755-4.677l4.308,11.322c-4.801,3.2-13.17,6.278-20.8,6.278
			c-27.078,0-44.186-21.047-44.186-48.125c0-25.106,16.984-47.015,44.308-47.015c8.123,0,15.755,3.384,21.169,7.065l-5.045,11.162
			L334.523,485.22z"/>
		<path d="M350.819,468.813h15.631v91.878h-15.631V468.813z"/>
		<polygon points="423.756,480.898 397.479,480.898 397.479,506.104 423.201,506.104 423.201,518.438 397.479,518.438 
			397.479,548.1 428.47,548.1 428.47,560.457 381.736,560.457 381.736,468.542 423.756,468.567 423.756,480.898 		"/>
		<polygon points="455.632,560.457 455.632,480.898 431.473,480.898 431.473,468.542 495.521,468.542 495.521,480.898 
			471.398,480.898 471.398,560.457 455.644,560.457 		"/>
		<path d="M522.192,560.457v-38.475l-24-53.415h17.563c5.538,13.256,10.904,25.181,16.27,41.07
			c6.031-16.001,12.209-27.938,18.24-41.107h12.924l-25.354,53.415v38.4h-15.754L522.192,560.457z"/>
	</g>
</g>
</svg>
