<svg width="42" height="42" viewBox="0 0 42 42" fill="none" xmlns="http://www.w3.org/2000/svg">
<path d="M34.6505 14.7L32.9705 15.12C31.5005 10.29 28.9805 7.77001 25.2005 7.77001H19.9505C19.7405 10.5 19.7405 14.7 19.7405 20.79H23.3105C25.2005 20.79 26.6705 19.32 27.3005 16.38H28.5605V27.3H27.3005C26.6705 24.36 25.4105 22.89 23.3105 22.68H19.7405C19.7405 26.04 19.9505 29.19 20.1605 31.92C20.3705 33.39 20.5805 34.44 21.0005 35.07C21.4205 35.7 22.2605 36.12 23.3105 36.33L24.9905 36.54V37.8H7.56055V36.54L9.03055 36.33C10.9205 36.12 11.9705 34.65 12.1805 31.92C12.8105 24.99 12.8105 18.27 12.1805 11.76C11.9705 9.03001 10.9205 7.56001 9.03055 7.35001L7.56055 6.93001V5.67001H34.4405L34.6505 14.7V14.7Z" fill="white"/>
</svg>
