<svg width="71" height="327" viewBox="0 0 71 327" fill="none" xmlns="http://www.w3.org/2000/svg">
<rect width="71" height="327" fill="#181716"/>
<path d="M29.1 292.32H30.96V298.22H35.06V293.62H36.92V298.22H43V300.5H29.1V292.32ZM43.14 283.867C43.14 285.16 42.84 286.354 42.24 287.447C41.6267 288.527 40.78 289.387 39.7 290.027C38.6067 290.654 37.38 290.967 36.02 290.967C34.66 290.967 33.44 290.654 32.36 290.027C31.28 289.387 30.44 288.527 29.84 287.447C29.2267 286.354 28.92 285.16 28.92 283.867C28.92 282.56 29.2267 281.367 29.84 280.287C30.44 279.194 31.28 278.334 32.36 277.707C33.44 277.08 34.66 276.767 36.02 276.767C37.38 276.767 38.6067 277.08 39.7 277.707C40.78 278.334 41.6267 279.194 42.24 280.287C42.84 281.367 43.14 282.56 43.14 283.867ZM41.16 283.867C41.16 282.947 40.9533 282.127 40.54 281.407C40.1133 280.687 39.5133 280.127 38.74 279.727C37.9533 279.314 37.0467 279.107 36.02 279.107C34.9933 279.107 34.0933 279.314 33.32 279.727C32.5467 280.127 31.9533 280.687 31.54 281.407C31.1267 282.127 30.92 282.947 30.92 283.867C30.92 284.787 31.1267 285.607 31.54 286.327C31.9533 287.047 32.5467 287.614 33.32 288.027C34.0933 288.427 34.9933 288.627 36.02 288.627C37.0467 288.627 37.9533 288.427 38.74 288.027C39.5133 287.614 40.1133 287.047 40.54 286.327C40.9533 285.607 41.16 284.787 41.16 283.867ZM43 267.303L37.44 270.503V272.243H43V274.523H29.1V269.723C29.1 268.657 29.2867 267.757 29.66 267.023C30.0333 266.277 30.5333 265.723 31.16 265.363C31.7867 264.99 32.4867 264.803 33.26 264.803C34.1667 264.803 34.9933 265.07 35.74 265.603C36.4733 266.123 36.9733 266.93 37.24 268.023L43 264.583V267.303ZM35.62 272.243V269.723C35.62 268.87 35.4067 268.23 34.98 267.803C34.5533 267.363 33.98 267.143 33.26 267.143C32.54 267.143 31.98 267.357 31.58 267.783C31.1667 268.21 30.96 268.857 30.96 269.723V272.243H35.62ZM35.86 254.447C35.9933 253.7 36.3867 253.067 37.04 252.547C37.6933 252.027 38.4333 251.767 39.26 251.767C39.9667 251.767 40.6067 251.953 41.18 252.327C41.74 252.687 42.1867 253.213 42.52 253.907C42.84 254.6 43 255.407 43 256.327V261.887H29.1L29.1 256.587C29.1 255.64 29.26 254.827 29.58 254.147C29.9 253.467 30.3333 252.953 30.88 252.607C31.4133 252.26 32.0133 252.087 32.68 252.087C33.48 252.087 34.1467 252.3 34.68 252.727C35.2133 253.153 35.6067 253.727 35.86 254.447ZM34.94 259.607V256.787C34.94 256.04 34.7733 255.46 34.44 255.047C34.0933 254.62 33.6 254.407 32.96 254.407C32.3333 254.407 31.8467 254.62 31.5 255.047C31.14 255.46 30.96 256.04 30.96 256.787L30.96 259.607H34.94ZM41.14 256.527C41.14 255.753 40.9533 255.147 40.58 254.707C40.2067 254.267 39.6867 254.047 39.02 254.047C38.34 254.047 37.8 254.28 37.4 254.747C37 255.213 36.8 255.833 36.8 256.607V259.607H41.14V256.527ZM30.94 247.009H35.02V242.209H36.88V247.009H41.14V241.609H43V249.289H29.08V241.609H30.94V247.009ZM43.14 234.221C43.14 235.154 42.98 235.994 42.66 236.741C42.3267 237.487 41.86 238.074 41.26 238.501C40.66 238.927 39.96 239.141 39.16 239.141V236.701C39.76 236.647 40.2533 236.414 40.64 236.001C41.0267 235.574 41.22 234.981 41.22 234.221C41.22 233.434 41.0333 232.821 40.66 232.381C40.2733 231.941 39.78 231.721 39.18 231.721C38.7133 231.721 38.3333 231.861 38.04 232.141C37.7467 232.407 37.52 232.747 37.36 233.161C37.2 233.561 37.0267 234.121 36.84 234.841C36.6 235.747 36.36 236.487 36.12 237.061C35.8667 237.621 35.48 238.101 34.96 238.501C34.44 238.901 33.7467 239.101 32.88 239.101C32.08 239.101 31.38 238.901 30.78 238.501C30.18 238.101 29.72 237.541 29.4 236.821C29.08 236.101 28.92 235.267 28.92 234.321C28.92 232.974 29.26 231.874 29.94 231.021C30.6067 230.154 31.5267 229.674 32.7 229.581V232.101C32.1933 232.141 31.76 232.381 31.4 232.821C31.04 233.261 30.86 233.841 30.86 234.561C30.86 235.214 31.0267 235.747 31.36 236.161C31.6933 236.574 32.1733 236.781 32.8 236.781C33.2267 236.781 33.58 236.654 33.86 236.401C34.1267 236.134 34.34 235.801 34.5 235.401C34.66 235.001 34.8333 234.454 35.02 233.761C35.2733 232.841 35.5267 232.094 35.78 231.521C36.0333 230.934 36.4267 230.441 36.96 230.041C37.48 229.627 38.18 229.421 39.06 229.421C39.7667 229.421 40.4333 229.614 41.06 230.001C41.6867 230.374 42.1933 230.927 42.58 231.661C42.9533 232.381 43.14 233.234 43.14 234.221ZM32.52 212.054C31.0933 212.001 29.9933 211.534 29.22 210.654C28.4467 209.774 28.06 208.581 28.06 207.074C28.06 206.074 28.2333 205.221 28.58 204.514C28.9267 203.794 29.4 203.254 30 202.894C30.6 202.521 31.2733 202.334 32.02 202.334C32.9 202.334 33.62 202.554 34.18 202.994C34.7267 203.434 35.1 203.948 35.3 204.534H35.38C35.6333 203.774 36.0533 203.174 36.64 202.734C37.2267 202.294 37.98 202.074 38.9 202.074C39.7267 202.074 40.46 202.268 41.1 202.654C41.7267 203.028 42.22 203.581 42.58 204.314C42.94 205.034 43.12 205.894 43.12 206.894C43.12 208.494 42.7267 209.774 41.94 210.734C41.1533 211.681 39.9667 212.181 38.38 212.234V208.914C38.9667 208.901 39.4333 208.734 39.78 208.414C40.1133 208.094 40.28 207.628 40.28 207.014C40.28 206.494 40.1333 206.094 39.84 205.814C39.5333 205.521 39.1333 205.374 38.64 205.374C38 205.374 37.54 205.581 37.26 205.994C36.9667 206.394 36.82 207.041 36.82 207.934V208.574H34.04V207.934C34.04 207.254 33.9267 206.708 33.7 206.294C33.46 205.868 33.04 205.654 32.44 205.654C31.96 205.654 31.5867 205.788 31.32 206.054C31.0533 206.321 30.92 206.688 30.92 207.154C30.92 207.661 31.0733 208.041 31.38 208.294C31.6867 208.534 32.0667 208.674 32.52 208.714V212.054ZM35.5 200.065C33.2067 200.065 31.4 199.625 30.08 198.745C28.76 197.852 28.1 196.418 28.1 194.445C28.1 192.472 28.76 191.045 30.08 190.165C31.4 189.272 33.2067 188.825 35.5 188.825C37.82 188.825 39.64 189.272 40.96 190.165C42.28 191.045 42.94 192.472 42.94 194.445C42.94 196.418 42.28 197.852 40.96 198.745C39.64 199.625 37.82 200.065 35.5 200.065ZM35.5 192.185C34.1533 192.185 33.12 192.332 32.4 192.625C31.6667 192.918 31.3 193.525 31.3 194.445C31.3 195.365 31.6667 195.972 32.4 196.265C33.12 196.558 34.1533 196.705 35.5 196.705C36.4067 196.705 37.16 196.652 37.76 196.545C38.3467 196.438 38.8267 196.225 39.2 195.905C39.56 195.572 39.74 195.085 39.74 194.445C39.74 193.805 39.56 193.325 39.2 193.005C38.8267 192.672 38.3467 192.452 37.76 192.345C37.16 192.238 36.4067 192.185 35.5 192.185ZM28.96 179.08H37.36C38.2 179.08 38.8467 178.873 39.3 178.46C39.7533 178.046 39.98 177.44 39.98 176.64C39.98 175.84 39.7533 175.226 39.3 174.8C38.8467 174.373 38.2 174.16 37.36 174.16H28.96V170.74H37.34C38.5933 170.74 39.6533 171.006 40.52 171.54C41.3867 172.073 42.04 172.793 42.48 173.7C42.92 174.593 43.14 175.593 43.14 176.7C43.14 177.806 42.9267 178.8 42.5 179.68C42.06 180.546 41.4067 181.233 40.54 181.74C39.66 182.246 38.5933 182.5 37.34 182.5H28.96V179.08ZM43 155.778L43 159.198L34.34 164.918H43V168.338H28.96V164.918L37.66 159.198H28.96V155.778H43ZM28.96 148.039C28.96 146.559 29.2533 145.266 29.84 144.159C30.4267 143.052 31.2533 142.199 32.32 141.599C33.3733 140.986 34.5933 140.679 35.98 140.679C37.3533 140.679 38.5733 140.986 39.64 141.599C40.7067 142.199 41.5333 143.059 42.12 144.179C42.7067 145.286 43 146.572 43 148.039V153.299H28.96L28.96 148.039ZM40.04 148.259C40.04 146.966 39.6867 145.959 38.98 145.239C38.2733 144.519 37.2733 144.159 35.98 144.159C34.6867 144.159 33.68 144.519 32.96 145.239C32.24 145.959 31.88 146.966 31.88 148.259V149.879H40.04V148.259ZM31.7 135.348H34.54V130.768H37.18V135.348H40.26V130.168H43V138.768H28.96V130.168H31.7V135.348ZM43 120.787L37.7 123.707V124.527H43V127.947H28.96V122.207C28.96 121.101 29.1533 120.161 29.54 119.387C29.9267 118.601 30.46 118.014 31.14 117.627C31.8067 117.241 32.5533 117.047 33.38 117.047C34.3133 117.047 35.1467 117.314 35.88 117.847C36.6133 118.367 37.1333 119.141 37.44 120.167L43 116.927V120.787ZM35.28 124.527V122.407C35.28 121.781 35.1267 121.314 34.82 121.007C34.5133 120.687 34.08 120.527 33.52 120.527C32.9867 120.527 32.5667 120.687 32.26 121.007C31.9533 121.314 31.8 121.781 31.8 122.407V124.527H35.28ZM32.52 110.882C31.0933 110.829 29.9933 110.362 29.22 109.482C28.4467 108.602 28.06 107.409 28.06 105.902C28.06 104.902 28.2333 104.049 28.58 103.342C28.9267 102.622 29.4 102.082 30 101.722C30.6 101.349 31.2733 101.162 32.02 101.162C32.9 101.162 33.62 101.382 34.18 101.822C34.7267 102.262 35.1 102.776 35.3 103.362H35.38C35.6333 102.602 36.0533 102.002 36.64 101.562C37.2267 101.122 37.98 100.902 38.9 100.902C39.7267 100.902 40.46 101.096 41.1 101.482C41.7267 101.856 42.22 102.409 42.58 103.142C42.94 103.862 43.12 104.722 43.12 105.722C43.12 107.322 42.7267 108.602 41.94 109.562C41.1533 110.509 39.9667 111.009 38.38 111.062V107.742C38.9667 107.729 39.4333 107.562 39.78 107.242C40.1133 106.922 40.28 106.456 40.28 105.842C40.28 105.322 40.1333 104.922 39.84 104.642C39.5333 104.349 39.1333 104.202 38.64 104.202C38 104.202 37.54 104.409 37.26 104.822C36.9667 105.222 36.82 105.869 36.82 106.762V107.402H34.04V106.762C34.04 106.082 33.9267 105.536 33.7 105.122C33.46 104.696 33.04 104.482 32.44 104.482C31.96 104.482 31.5867 104.616 31.32 104.882C31.0533 105.149 30.92 105.516 30.92 105.982C30.92 106.489 31.0733 106.869 31.38 107.122C31.6867 107.362 32.0667 107.502 32.52 107.542V110.882ZM35.5 98.893C33.2067 98.893 31.4 98.453 30.08 97.573C28.76 96.6796 28.1 95.2463 28.1 93.273C28.1 91.2996 28.76 89.873 30.08 88.993C31.4 88.0996 33.2067 87.653 35.5 87.653C37.82 87.653 39.64 88.0996 40.96 88.993C42.28 89.873 42.94 91.2996 42.94 93.273C42.94 95.2463 42.28 96.6796 40.96 97.573C39.64 98.453 37.82 98.893 35.5 98.893ZM35.5 91.013C34.1533 91.013 33.12 91.1596 32.4 91.453C31.6667 91.7463 31.3 92.353 31.3 93.273C31.3 94.193 31.6667 94.7996 32.4 95.093C33.12 95.3863 34.1533 95.533 35.5 95.533C36.4067 95.533 37.16 95.4796 37.76 95.373C38.3467 95.2663 38.8267 95.053 39.2 94.733C39.56 94.3996 39.74 93.913 39.74 93.273C39.74 92.633 39.56 92.153 39.2 91.833C38.8267 91.4996 38.3467 91.2796 37.76 91.173C37.16 91.0663 36.4067 91.013 35.5 91.013Z" fill="#DCDCDC"/>
<path d="M49.6505 28.7L47.9705 29.12C46.5005 24.29 43.9805 21.77 40.2005 21.77H34.9505C34.7405 24.5 34.7405 28.7 34.7405 34.79H38.3105C40.2005 34.79 41.6705 33.32 42.3005 30.38H43.5605V41.3H42.3005C41.6705 38.36 40.4105 36.89 38.3105 36.68H34.7405C34.7405 40.04 34.9505 43.19 35.1605 45.92C35.3705 47.39 35.5805 48.44 36.0005 49.07C36.4205 49.7 37.2605 50.12 38.3105 50.33L39.9905 50.54V51.8H22.5605V50.54L24.0305 50.33C25.9205 50.12 26.9705 48.65 27.1805 45.92C27.8105 38.99 27.8105 32.27 27.1805 25.76C26.9705 23.03 25.9205 21.56 24.0305 21.35L22.5605 20.93V19.67H49.4405L49.6505 28.7Z" fill="white"/>
</svg>
