<svg width="20" height="21" viewBox="0 0 20 21" fill="none" xmlns="http://www.w3.org/2000/svg">
<path d="M18.125 10.5C18.125 6.01289 14.4871 2.375 10 2.375C5.51289 2.375 1.875 6.01289 1.875 10.5C1.875 14.9871 5.51289 18.625 10 18.625C14.4871 18.625 18.125 14.9871 18.125 10.5ZM9.81836 14.0687C9.76008 14.0109 9.71375 13.9422 9.68203 13.8665C9.65031 13.7908 9.63382 13.7096 9.63349 13.6275C9.63316 13.5454 9.64901 13.464 9.68013 13.3881C9.71125 13.3121 9.75702 13.243 9.81484 13.1848L11.8586 11.125L6.64063 11.125C6.47486 11.125 6.31589 11.0592 6.19868 10.9419C6.08147 10.8247 6.01563 10.6658 6.01563 10.5C6.01563 10.3342 6.08147 10.1753 6.19868 10.0581C6.31589 9.94085 6.47486 9.875 6.64063 9.875L11.8586 9.875L9.81484 7.81523C9.75703 7.75691 9.71127 7.68777 9.68018 7.61176C9.64909 7.53575 9.63327 7.45436 9.63364 7.37224C9.634 7.29012 9.65053 7.20887 9.68229 7.13314C9.71406 7.05741 9.76042 6.98867 9.81875 6.93086C9.87708 6.87305 9.94622 6.82729 10.0222 6.7962C10.0982 6.76511 10.1796 6.74929 10.2617 6.74965C10.3439 6.75001 10.4251 6.76655 10.5008 6.79831C10.5766 6.83007 10.6453 6.87644 10.7031 6.93477L13.8043 10.0598C13.9205 10.1768 13.9857 10.3351 13.9857 10.5C13.9857 10.6649 13.9205 10.8232 13.8043 10.9402L10.7031 14.0652C10.6453 14.1236 10.5765 14.1701 10.5007 14.2018C10.425 14.2336 10.3437 14.2502 10.2615 14.2505C10.1793 14.2508 10.0979 14.2349 10.0218 14.2038C9.94578 14.1726 9.87664 14.1267 9.81836 14.0687Z" fill="#222222"/>
</svg>
