<svg width="1128" height="191" viewBox="0 0 1128 191" fill="none" xmlns="http://www.w3.org/2000/svg">
<rect width="1128" height="191" fill="#101010"/>
<path d="M435.5 95.5C435.5 115.935 418.935 132.5 398.5 132.5C378.065 132.5 361.5 115.935 361.5 95.5C361.5 75.0655 378.065 58.5 398.5 58.5C418.935 58.5 435.5 75.0655 435.5 95.5Z" stroke="#DFDFDF" stroke-width="3"/>
<path d="M385.984 79.4087V84.6533H419.836V79.4087H385.984Z" fill="url(#paint0_linear_11_152)"/>
<path d="M410.062 111.115V105.87H376.21V111.115H410.062Z" fill="url(#paint1_linear_11_152)"/>
<path d="M385.844 111.198C383.827 109.18 383.827 105.91 385.844 103.893L410.805 78.932C412.822 80.9492 412.822 84.2198 410.805 86.237L385.844 111.198Z" fill="#DFDFDF"/>
<line x1="482.5" y1="51" x2="482.5" y2="140" stroke="#D9D9D9" stroke-width="5"/>
<path d="M525.16 103.968V108H549.448V103.872H532.696C531.4 103.872 529.96 104.64 528.76 105.216L528.376 104.496C529.576 103.872 531.064 103.152 531.832 102.096L549.4 78.528H549.448V74.4H525.64V78.528H541.864C543.16 78.528 544.648 77.76 545.8 77.184L546.184 77.904C545.032 78.48 543.544 79.248 542.776 80.304L525.16 103.968ZM565.637 108.768C572.501 108.768 575.717 103.632 576.389 101.136H571.877C571.349 102.864 569.045 104.928 565.301 104.928C559.493 104.928 556.709 100.704 556.709 97.536L576.917 97.584C576.965 97.152 576.917 96.048 576.917 95.568C576.965 89.04 572.261 83.28 564.677 83.28C557.237 83.28 552.053 88.704 552.053 95.856C552.053 103.008 556.805 108.768 565.637 108.768ZM556.709 94.08C556.709 90.576 559.973 86.976 564.725 86.976C569.381 86.976 572.261 90.24 572.261 94.08H556.709ZM588.052 85.344C586.804 86.352 586.18 88.368 585.556 89.856L584.788 89.568C585.412 88.08 586.18 86.16 586.18 84.528V84H582.004V108H586.18V94.56C586.18 89.472 589.924 87.216 594.388 87.216C598.42 87.216 600.388 89.472 600.388 94.56V108H604.612V91.536C604.612 86.064 600.772 83.28 595.78 83.28C592.372 83.28 590.308 83.52 588.052 85.344ZM613.942 84H609.574L620.326 108H624.982L635.542 84H631.174L623.494 100.56C622.918 101.808 622.966 103.488 622.966 104.88H622.15C622.15 103.536 622.198 101.808 621.622 100.56L613.942 84ZM652.543 108.768C659.407 108.768 662.623 103.632 663.295 101.136H658.783C658.255 102.864 655.951 104.928 652.207 104.928C646.399 104.928 643.615 100.704 643.615 97.536L663.823 97.584C663.871 97.152 663.823 96.048 663.823 95.568C663.871 89.04 659.167 83.28 651.583 83.28C644.143 83.28 638.959 88.704 638.959 95.856C638.959 103.008 643.711 108.768 652.543 108.768ZM643.615 94.08C643.615 90.576 646.879 86.976 651.631 86.976C656.287 86.976 659.167 90.24 659.167 94.08H643.615ZM674.622 86.064C673.614 87.024 673.134 88.848 672.654 90.144L671.886 89.856C672.366 88.56 673.086 86.88 673.086 85.488V84H668.91V108H673.086V95.76C673.086 89.136 678.654 87.264 684.27 87.264V83.28C679.086 83.28 676.878 83.76 674.622 86.064ZM710.695 100.944C710.695 91.104 692.887 94.944 692.887 90.288C692.887 88.272 695.479 87.024 698.935 87.024C702.871 87.024 705.799 88.224 705.799 90.096H710.023C710.023 86.112 705.367 83.28 699.079 83.28C692.503 83.28 688.567 86.544 688.567 90.24C688.567 99.6 706.375 94.944 706.375 101.328C706.375 103.68 704.263 104.784 700.471 104.784C696.151 104.784 692.503 102.576 692.503 100.8H688.279C688.279 105.168 693.847 108.768 700.231 108.768C707.095 108.768 710.695 105.888 710.695 100.944ZM727.731 108.768C734.595 108.768 737.811 103.632 738.483 101.136H733.971C733.443 102.864 731.139 104.928 727.395 104.928C721.587 104.928 718.803 100.704 718.803 97.536L739.01 97.584C739.059 97.152 739.01 96.048 739.01 95.568C739.059 89.04 734.355 83.28 726.771 83.28C719.331 83.28 714.146 88.704 714.146 95.856C714.146 103.008 718.898 108.768 727.731 108.768ZM718.803 94.08C718.803 90.576 722.067 86.976 726.819 86.976C731.475 86.976 734.355 90.24 734.355 94.08H718.803ZM755.762 108.768C762.626 108.768 765.842 103.632 766.514 101.136H762.002C761.474 102.864 759.17 104.928 755.426 104.928C749.618 104.928 746.834 100.704 746.834 97.536L767.042 97.584C767.09 97.152 767.042 96.048 767.042 95.568C767.09 89.04 762.386 83.28 754.802 83.28C747.362 83.28 742.178 88.704 742.178 95.856C742.178 103.008 746.93 108.768 755.762 108.768ZM746.834 94.08C746.834 90.576 750.098 86.976 754.85 86.976C759.506 86.976 762.386 90.24 762.386 94.08H746.834Z" fill="#D9D9D9"/>
<defs>
<linearGradient id="paint0_linear_11_152" x1="385.984" y1="82.031" x2="410.844" y2="82.1326" gradientUnits="userSpaceOnUse">
<stop stop-color="white"/>
<stop offset="1" stop-color="white" stop-opacity="0"/>
</linearGradient>
<linearGradient id="paint1_linear_11_152" x1="410.062" y1="108.492" x2="385.202" y2="108.391" gradientUnits="userSpaceOnUse">
<stop stop-color="white"/>
<stop offset="1" stop-color="white" stop-opacity="0"/>
</linearGradient>
</defs>
</svg>
