<?xml version="1.0" encoding="utf-8"?>
<!-- Generator: Adobe Illustrator 27.1.1, SVG Export Plug-In . SVG Version: 6.00 Build 0)  -->
<svg version="1.1" id="Layer_1" xmlns="http://www.w3.org/2000/svg" xmlns:xlink="http://www.w3.org/1999/xlink" x="0px" y="0px"
	 viewBox="0 0 140 50" style="enable-background:new 0 0 140 50;" xml:space="preserve">
<style type="text/css">
	.st0{fill:#FF9600;}
	.st1{fill:#108705;}
	.st2{fill:#FFFFFF;stroke:#FFFFFF;stroke-miterlimit:10;}
</style>
<g>
	<g>
		<g>
			<path class="st0" d="M68,0.8c3.8,0,7,3.1,7,7c0,3.8-3.1,6.9-7,6.9c-3.8,0-6.9-3.1-6.9-6.9C61.1,4,64.2,0.8,68,0.8"/>
			<path class="st0" d="M19.1,48.8H2v-5.5h1.3c0.8,0,1.1-0.5,1.1-1.2V24.9c0-0.8-0.3-1.2-1.1-1.2H2V18h15.4v4.8
				c2.2-3.1,5.1-5.4,9.7-5.4c6.1,0,8.1,2.4,8.8,6c1.7-3.1,5.2-6,10-6c7.7,0,8.8,3.7,8.8,9.2V42c0,0.8,0.3,1.2,1.3,1.2h1v5.5H40.1
				v-5.5h0.5c0.8,0,1.1-0.5,1.1-1.2V27.9c0-2.5-0.9-3.4-2.6-3.4c-2.3,0-3.1,1.9-3.1,4.9V42c0,0.8,0.4,1.3,1.1,1.3h0.7v5.5H21.4v-5.5
				h0.5c0.8,0,1.1-0.5,1.1-1.2V27.9c0-2.5-0.9-3.4-2.6-3.4c-2.3,0-3.1,1.9-3.1,4.9V42c0,0.8,0.3,1.3,1.1,1.3h0.7L19.1,48.8
				L19.1,48.8z"/>
			<path class="st0" d="M61.7,24.9c0-0.8-0.3-1.2-1.1-1.2h-1.3V18h15.3v24c0,0.8,0.3,1.3,1.1,1.3h1.2v5.5H59.3v-5.5h1.3
				c0.8,0,1.1-0.5,1.1-1.2V24.9z"/>
			<path class="st0" d="M96.6,48.8H79.5v-5.5h1.3c0.8,0,1.1-0.5,1.1-1.2V24.9c0-0.8-0.3-1.2-1.1-1.2h-1.3V18h15.3v4.9
				c1.7-2.6,5.2-5.5,10.3-5.5c7.1,0,8.7,3.7,8.7,9.2V42c0,0.8,0.3,1.2,1.2,1.2h1v5.5h-17v-5.5h0.7c0.8,0,1.1-0.5,1.1-1.2V27.9
				c0-2.5-0.9-3.4-2.6-3.4c-1.8,0-3.4,1.3-3.4,4.3v13c0,0.8,0.4,1.3,1.3,1.3h0.6V48.8z"/>
			<path class="st0" d="M115.7,18l4.5-0.2l0.5-7h11.5V18h5.5v5.8h-5.5v14c0,3.6,0.7,4.8,4.7,4.8h1v6.2c-2.6,0.3-5,0.4-7.6,0.4
				c-7.3,0-11-2.3-11-8.4V23.7h-3.7L115.7,18L115.7,18z"/>
		</g>
	</g>
	<g>
		<g>
			<path class="st1" d="M74.6,41.9v-6.2H61.7V42c0,0.8-0.3,1.2-1.1,1.2h-1.3v5.5h17.6v-5.5h-1.2C74.9,43.2,74.6,42.8,74.6,41.9z"/>
			<path class="st1" d="M113.7,42v-6.3h-12.9V42c0,0.8-0.4,1.2-1.1,1.2h-0.7v5.5h17v-5.5h-1C114,43.2,113.7,42.8,113.7,42z"/>
			<path class="st1" d="M94.8,42v-6.2H81.9V42c0,0.8-0.3,1.2-1.1,1.2h-1.3v5.5h17.1v-5.5H96C95.2,43.2,94.8,42.8,94.8,42z"/>
		</g>
	</g>
	<rect x="61.5" y="31.2" class="st2" width="52.3" height="6"/>
</g>
</svg>
