<?xml version="1.0" encoding="UTF-8"?>
<svg id="Layer_1" data-name="Layer 1" xmlns="http://www.w3.org/2000/svg" xmlns:xlink="http://www.w3.org/1999/xlink" viewBox="0 0 824.093 139.788">
  <path id="fullLogo" d="M75.498,51.491c-2.518,6.576-7.333,10.504-14.207,11.855-5.006,.978-10.098,1.148-15.184,1.18-5.736,.031-11.47,.011-17.212,.011h-.931V24.239c.409-.019,.782-.073,1.149-.073,7.396,.043,14.791,.043,22.182,.148,3.42,.054,6.847,.235,10.23,.884,7.481,1.437,14.248,7.491,15.068,16.514,.309,3.353,.106,6.641-1.095,9.779h0ZM95.912,14.248c-4.199-5.054-9.263-8.885-15.446-11.173-4.165-1.542-8.517-2.063-12.902-2.352-4.262-.266-8.539-.362-12.812-.553-.292-.01-.585-.105-.877-.17H0V138.98c.228,.021,.457,.065,.686,.065,8.742,0,17.489,0,26.231-.012,.297,0,.59-.053,1.004-.096v-50.139h1.373c4.852,0,9.71-.021,14.562,0,7.827,.043,15.643-.075,23.421-.946,2.714-.309,5.475-.564,8.082-1.31,14.987-4.235,24.469-14.056,28.412-29.039,2.207-8.384,2.063-16.939,.435-25.443-1.266-6.618-3.953-12.597-8.294-17.812h0Z" style="fill: #fff;"/>
  <a xlink:href="87.2558823529412">
    <path id="fullLogo-2" data-name="fullLogo" d="M420.443,36.615c-.033-.073-.064-.16-.096-.234h-1.107c-10.21,0-20.425,.011-30.635-.021-.893,0-1.479,.276-2.065,.947-9.879,11.268-19.792,22.516-29.688,33.774-.266,.298-.558,.585-1.015,1.065V1.16c0-.384,.011-.765,.015-1.16h-.457c-.128,.076-.245,.18-.378,.223-7.725,2.224-15.451,4.449-23.181,6.663-.99,.285-1.979,.573-2.953,.85V138.32h26.954v-1.436c0-10.024,.005-20.037-.017-30.06,0-.735,.187-1.299,.713-1.842,3.086-3.182,6.135-6.394,9.194-9.598,.224-.232,.484-.436,.788-.701,.803,1.382,1.532,2.649,2.261,3.905,7.406,12.938,14.817,25.867,22.223,38.806,.336,.585,.633,1.022,1.463,1.022,9.902-.032,19.803-.022,29.716-.032,.249,0,.5-.064,.877-.128-12.445-21.58-24.831-43.053-37.259-64.611,11.566-12.364,23.107-24.697,34.647-37.03h0Z" style="fill: #fff;"/>
  </a>
  <g id="logoMark">
    <a xlink:href="64.1556862745098">
      <path id="logoMark_PathItem_" data-name="logoMark &amp;lt;PathItem&amp;gt;" d="M195.383,37.223c-1.495-1.087-3.15-1.725-5.007-1.896-6.172-.573-11.688,4.885-10.311,11.695,.533,2.617,2.038,4.575,4.193,6.129,9.103,6.576,14.312,15.472,15.466,26.623,.734,7.099-.628,13.876-3.873,20.26-7.874,15.484-25.682,23.4-42.457,18.877-16.951-4.576-28.364-20.759-27.246-37.626,.478-7.225,2.702-13.779,6.917-19.663,2.453-3.405,5.469-6.258,8.896-8.673,3.484-2.459,4.958-6.704,3.761-10.704-1.8951-6.375-9.348-9.014-14.838-5.237-3.8,2.609-7.194,5.683-10.211,9.162-7.938,9.163-12.572,19.76-13.748,31.817-.6,6.139-.1,12.227,1.288,18.249,5.363,23.208,25.266,40.68,48.959,43,.877,.074,1.734,.286,2.601,.435h6.476c.292-.085,.579-.191,.871-.223,1.72-.245,3.448-.415,5.156-.692,11.753-1.968,21.99-7.054,30.327-15.546,13.748-14.014,19.015-30.889,15.636-50.204-2.628-14.991-10.555-26.846-22.856-35.783h0Z" style="fill: #ed1c24;"/>
    </a>
    <a xlink:href="64.1556862745098">
      <path id="logoMark_PathItem_-2" data-name="logoMark &amp;lt;PathItem&amp;gt;" d="M153.516,73.827c.585,4.308,4.156,7.799,8.305,8.256,5.491,.607,9.189-2.83,10.424-6.31,.473-1.329,.595-2.702,.595-4.096v-25.197c0-8.321,0-16.643-.005-24.965,0-.658-.022-1.309-.086-1.968-.6-6.417-7.097-10.449-13.12-8.16-3.83,1.457-6.246,5.076-6.251,9.395,0,17.1,0,34.21,.005,51.32,0,.576,.054,1.162,.133,1.725h0Z" style="fill: #ed1c24;"/>
    </a>
  </g>
  <a xlink:href="87.2558823529412">
    <path id="fullLogo-3" data-name="fullLogo" d="M562.626,117.24c-4.107-.478-6.146-2.339-6.879-6.416-.2451-1.394-.346-2.841-.346-4.256-.021-16.684-.0161-33.369-.011-50.054,0-.33,.042-.659,.075-1.129h15.8499v-18.696h-15.9459V.18c-9.189,2.545-18.254,5.055-27.401,7.588v28.965h-4.83c-1.618,0-3.235-.011-4.852,0-1.559,.01-3.124-.044-4.6711,.042v18.643c4.7981,.031,9.5541-.011,14.3911,.031v1.768c0,19.259-.011,38.529,.01,57.789,.006,1.841,.101,3.703,.358,5.523,1.1109,7.863,5.24,13.428,12.7199,16.355,3.3621,1.309,6.8691,1.957,10.444,2.341,1.059,.105,2.113,.287,3.171,.446h11.333c.3669-.074,.734-.17,1.101-.212,2.4531-.245,4.906-.479,7.358-.724,.293-.032,.569-.149,.835-.213v-21.728c-.2969,.02-.526,.02-.7449,.053-3.968,.714-7.958,.862-11.965,.393h0Z" style="fill: #fff;"/>
  </a>
  <a xlink:href="87.2558823529412">
    <path id="fullLogo-4" data-name="fullLogo" d="M823.402,116.857c-4.002,.714-8.034,.863-12.078,.363-3.99-.491-5.98-2.353-6.703-6.31-.2339-1.246-.373-2.523-.384-3.789-.02-16.95-.02-33.901-.02-50.851,0-.256,.063-.512,.105-.841h7.907c1.3519,0,2.703,.02,4.043-.011,1.288-.011,2.597,.096,3.8521-.065,.223-1.873,.138-17.738-.1061-18.62h-7.8209c-1.34,0-2.693,.01-4.044,0-1.288-.022-2.596,.064-3.9791-.075V.191c-9.1619,2.534-18.1959,5.033-27.3469,7.567v28.975h-7.2891c-1.203,0-2.395-.011-3.5859,0-1.171,.01-2.3521-.044-3.5231,.042v18.654h14.429v1.637c0,19.388,0,38.767-.0099,58.143,0,2.116,.1279,4.235,.5099,6.32,1.3311,7.225,5.278,12.343,12.1201,15.165,3.481,1.435,7.141,2.126,10.865,2.52,1.064,.116,2.1169,.298,3.171,.457h11.3329c1.3511-.159,2.7021-.308,4.0531-.457,1.5969-.181,3.1819-.351,4.778-.532,.139-.01,.277-.107,.415-.17v-21.74c-.234,.033-.457,.042-.691,.085h0Z" style="fill: #fff;"/>
  </a>
  <path id="fullLogo-5" data-name="fullLogo" d="M442.235,75.518c.037-2.086,.442-4.044,1.058-5.948,2.113-6.522,6.135-11.323,12.685-13.737,3.671-1.351,7.496-1.681,11.375-1.384,2,.15,3.974,.489,5.879,1.14,4.241,1.446,7.375,4.212,9.577,8.076,1.692,2.979,2.718,6.194,3.464,9.513,.17,.745,.308,1.501,.472,2.34h-44.51Zm63.707-19.983c-5.809-9.567-13.95-16.238-24.665-19.612-7.545-2.373-15.2701-2.755-23.086-1.766-6.847,.873-13.29,2.979-19.196,6.555-11.939,7.236-19.18,17.887-22.559,31.294-1.692,6.714-2,13.535-1.436,20.422,.447,5.489,1.558,10.819,3.538,15.959,4.48,11.662,12.2,20.388,23.574,25.74,5.773,2.714,11.887,4.172,18.239,4.672,6.805,.522,13.551,.181,20.1909-1.468,8.045-1.991,15.025-5.863,20.6971-11.961,5.182-5.586,8.598-12.173,11.014-19.334,.052-.17,.062-.361,.116-.607h-23.985c-.096,.192-.19,.351-.26,.532-.655,1.799-1.713,3.352-3.017,4.746-2.352,2.521-5.187,4.341-8.369,5.618-6.251,2.523-12.636,2.544-19.036,.799-6.289-1.714-10.615-5.725-13.078-11.749-1.069-2.617-1.718-5.352-2.058-8.149-.166-1.362-.267-2.725-.4001-4.204h72.023c.03-.489,.064-.787,.074-1.095,.2759-5.438,0-10.854-.958-16.228-1.266-7.16-3.575-13.94-7.363-20.164h0Z" style="fill: #fff;"/>
  <a xlink:href="87.2558823529412">
    <path id="fullLogo-6" data-name="fullLogo" d="M760.046,138.118v-1.468c0-19.644-.0111-39.307,0-58.949,0-4.022-.042-8.024-.468-12.015-.469-4.342-1.266-8.609-2.7891-12.716-3.213-8.682-9.2349-14.438-18.12-17.058-6.8159-2-13.78-2.531-20.814-1.466-7.582,1.137-14.11,4.467-19.547,9.885-1.767,1.745-3.277,3.681-4.639,5.756-.2029,.309-.283,.85-1.022,.659v-13.886c-1.655-.256-25.165-.171-25.9319,.063v101.376h27.262v-1.617c0-17.303-.011-34.616,.0109-51.916,0-3.66,.201-7.312,.84-10.929,.6179-3.512,1.574-6.906,3.48-9.97,1.947-3.128,4.639-5.321,8.119-6.533,4.0859-1.415,8.2889-1.681,12.539-1.042,4.252,.627,7.6779,2.636,9.992,6.351,.969,1.553,1.655,3.225,2.166,4.958,1.2019,4.108,1.538,8.332,1.549,12.577,.0421,11.482,.015,22.974,.015,34.455,0,7.439-.005,14.878,0,22.314,0,.447,.033,.884,.043,1.309,2.5059,.256,26.421,.138,27.315-.138h0Z" style="fill: #fff;"/>
  </a>
  <a xlink:href="87.2558823529412">
    <path id="fullLogo-7" data-name="fullLogo" d="M295.024,98.812c-.602,3.797-1.665,7.426-3.703,10.736-2.192,3.553-5.198,6.15-9.1411,7.607-1.744,.65-3.558,1.012-5.405,1.15-6.231,.478-11.546-1.384-15.679-6.215-1.693-1.979-2.969-4.203-3.98-6.597-1.697-4.012-2.612-8.203-3.059-12.514-.703-6.776-.288-13.471,1.468-20.058,1.084-4.086,2.729-7.927,5.395-11.278,2.442-3.064,5.506-5.236,9.316-6.29,2.5591-.701,5.171-.796,7.795-.531,4.751,.489,8.837,2.309,11.88,6.119,1.888,2.361,3.033,5.075,3.74,7.99,.229,.928,.405,1.873,.618,2.853h24.841c-.033-.639-.043-1.202-.107-1.767-.107-.957-.223-1.915-.382-2.863-.906-5.543-2.768-10.725-5.917-15.407-4.6711-6.96-11.109-11.663-18.915-14.524-9.619-3.534-19.478-4.077-29.459-1.981-8.427,1.766-15.721,5.737-21.728,11.961-4.922,5.107-8.385,11.11-10.673,17.791-3.538,10.344-4.431,20.974-3.075,31.796,.761,6.053,2.41,11.842,5.139,17.3,5.586,11.142,14.179,18.888,26.112,22.698,9.136,2.905,18.4359,3,27.715,.745,11.577-2.81,20.313-9.46,26.012-19.984,3.086-5.692,4.789-11.822,5.703-18.206,.053-.351,.042-.724,.053-1.117h-24.457c-.054,.289-.08,.426-.107,.586h0Z" style="fill: #fff;"/>
  </a>
  <a xlink:href="87.2558823529412">
    <path id="fullLogo-8" data-name="fullLogo" d="M621.0229,.234c-8.954,2.501-17.9139,4.99-26.9269,7.502V138.309h27.018c.24-1.585,.1639-137.191-.0911-138.075h0Z" style="fill: #fff;"/>
  </a>
  <a xlink:href="87.2558823529412">
    <path id="fullLogo-9" data-name="fullLogo" d="M658.3779,36.669h-27.0809v101.651h27.0809V36.669h0Z" style="fill: #fff;"/>
  </a>
  <a xlink:href="87.2558823529412">
    <path id="fullLogo-10" data-name="fullLogo" d="M658.404,.191c-9.082,2.534-18.063,5.033-27.08,7.545V23.931h27.08V.191h0Z" style="fill: #fff;"/>
  </a>
  <a xlink:href="87.2558823529412">
    <path id="fullLogo-11" data-name="fullLogo" d="M563.632,90.651h24.452v-16.899h-24.452v16.899h0Z" style="fill: #fff;"/>
  </a>
</svg>