<?xml version="1.0" encoding="utf-8"?>
<!-- Generator: Adobe Illustrator 26.0.1, SVG Export Plug-In . SVG Version: 6.00 Build 0)  -->
<svg version="1.1" id="Layer_1" xmlns="http://www.w3.org/2000/svg" xmlns:xlink="http://www.w3.org/1999/xlink" x="0px" y="0px"
	 viewBox="0 0 330.6 78.9" style="enable-background:new 0 0 330.6 78.9;" xml:space="preserve">
<style type="text/css">
	.st0{fill-rule:evenodd;clip-rule:evenodd;fill:#F58634;}
	.st1{fill:#FFFFFF;}
</style>
<g id="Layer_x0020_1">
	<g id="_2154015698000">
		<path class="st0" d="M317.2,77.5l-5.4-15.3h-32.4l-5.3,15.3h-13.6l27.6-76.1h15l27.5,76.1H317.2L317.2,77.5z M283.6,50.4h24.1
			l-12-34.4L283.6,50.4L283.6,50.4z"/>
		<path class="st1" d="M225.1,78.9c-11.5,0-20.9-3.8-28.5-11.4c-7.5-7.6-11.3-16.9-11.3-28.1c0-11.2,3.8-20.5,11.3-28.1
			c7.5-7.6,17-11.4,28.5-11.4c6.9,0,13.2,1.6,19.1,4.9c5.8,3.3,10.4,7.7,13.6,13.3l-10.9,6.3c-2-3.8-5-6.8-8.9-9
			c-3.9-2.2-8.2-3.3-13-3.3c-8.1,0-14.7,2.6-19.7,7.7c-5,5.1-7.6,11.7-7.6,19.6c0,7.9,2.5,14.4,7.6,19.6c5,5.1,11.6,7.7,19.7,7.7
			c4.8,0,9.1-1.1,13-3.3c3.9-2.2,6.8-5.2,8.8-9l10.9,6.2c-3.2,5.6-7.7,10-13.5,13.3C238.4,77.3,232,78.9,225.1,78.9L225.1,78.9z"/>
		<polygon class="st1" points="161.4,1.4 173.9,1.4 173.9,77.5 161.4,77.5 		"/>
		<path class="st1" d="M113.5,1.4c10.4,0,19.1,3.7,26,11c6.9,7.3,10.4,16.3,10.4,27.1c0,10.7-3.5,19.7-10.4,27
			c-6.9,7.4-15.6,11-26,11H96.3v-12h17.2c7.2,0,13-2.5,17.6-7.4c4.5-4.9,6.8-11.2,6.8-18.7c0-7.6-2.3-13.9-6.8-18.8
			c-4.5-4.9-10.4-7.3-17.6-7.3H96.3v-12L113.5,1.4L113.5,1.4z"/>
		<polygon class="st1" points="73.4,1.4 85.9,1.4 85.9,77.5 76.1,77.5 40.2,25.9 40.2,77.5 27.7,77.5 27.7,1.4 37.3,1.4 73.4,53.4 
					"/>
		<polygon class="st1" points="0,1.4 12.5,1.4 12.5,77.5 0,77.5 		"/>
	</g>
</g>
</svg>
