<svg width="130" height="130" viewBox="0 0 130 130" fill="none" xmlns="http://www.w3.org/2000/svg">
<circle cx="65" cy="65" r="65" fill="#333333"/>
<path d="M43.082 80.4C40.8154 80.4 38.832 79.9 37.132 78.9C35.432 77.9 34.0987 76.3833 33.132 74.35C32.1987 72.2833 31.732 69.6833 31.732 66.55C31.732 63.3833 32.182 60.7833 33.082 58.75C33.982 56.7167 35.282 55.2 36.982 54.2C38.682 53.2 40.7154 52.7 43.082 52.7C45.6154 52.7 47.882 53.2833 49.882 54.45C51.9154 55.5833 53.5154 57.1833 54.682 59.25C55.882 61.3167 56.482 63.75 56.482 66.55C56.482 69.3833 55.882 71.8333 54.682 73.9C53.5154 75.9667 51.9154 77.5667 49.882 78.7C47.882 79.8333 45.6154 80.4 43.082 80.4ZM27.182 89.7V53.1H34.632V58.6L34.482 66.6L34.982 74.55V89.7H27.182ZM41.732 74C43.032 74 44.182 73.7 45.182 73.1C46.2154 72.5 47.032 71.65 47.632 70.55C48.2654 69.4167 48.582 68.0833 48.582 66.55C48.582 64.9833 48.2654 63.65 47.632 62.55C47.032 61.45 46.2154 60.6 45.182 60C44.182 59.4 43.032 59.1 41.732 59.1C40.432 59.1 39.2654 59.4 38.232 60C37.1987 60.6 36.382 61.45 35.782 62.55C35.182 63.65 34.882 64.9833 34.882 66.55C34.882 68.0833 35.182 69.4167 35.782 70.55C36.382 71.65 37.1987 72.5 38.232 73.1C39.2654 73.7 40.432 74 41.732 74ZM77.6035 80.4C75.2368 80.4 73.2035 79.9 71.5035 78.9C69.8035 77.9 68.5035 76.3833 67.6035 74.35C66.7035 72.2833 66.2535 69.6833 66.2535 66.55C66.2535 63.3833 66.7202 60.7833 67.6535 58.75C68.6202 56.7167 69.9535 55.2 71.6535 54.2C73.3535 53.2 75.3369 52.7 77.6035 52.7C80.1368 52.7 82.4035 53.2667 84.4035 54.4C86.4368 55.5333 88.0369 57.1333 89.2035 59.2C90.4035 61.2667 91.0035 63.7167 91.0035 66.55C91.0035 69.35 90.4035 71.7833 89.2035 73.85C88.0369 75.9167 86.4368 77.5333 84.4035 78.7C82.4035 79.8333 80.1368 80.4 77.6035 80.4ZM61.7035 80V42.9H69.5035V58.55L69.0035 66.5L69.1535 74.5V80H61.7035ZM76.2535 74C77.5535 74 78.7035 73.7 79.7035 73.1C80.7369 72.5 81.5535 71.65 82.1535 70.55C82.7868 69.4167 83.1035 68.0833 83.1035 66.55C83.1035 64.9833 82.7868 63.65 82.1535 62.55C81.5535 61.45 80.7369 60.6 79.7035 60C78.7035 59.4 77.5535 59.1 76.2535 59.1C74.9535 59.1 73.7868 59.4 72.7535 60C71.7202 60.6 70.9035 61.45 70.3035 62.55C69.7035 63.65 69.4035 64.9833 69.4035 66.55C69.4035 68.0833 69.7035 69.4167 70.3035 70.55C70.9035 71.65 71.7202 72.5 72.7535 73.1C73.7868 73.7 74.9535 74 76.2535 74ZM98.882 80.4C97.5487 80.4 96.3987 79.95 95.432 79.05C94.4987 78.1167 94.032 76.9333 94.032 75.5C94.032 74.0667 94.4987 72.9167 95.432 72.05C96.3987 71.15 97.5487 70.7 98.882 70.7C100.249 70.7 101.399 71.15 102.332 72.05C103.265 72.9167 103.732 74.0667 103.732 75.5C103.732 76.9333 103.265 78.1167 102.332 79.05C101.399 79.95 100.249 80.4 98.882 80.4Z" fill="white"/>
</svg>
