<svg width="50" height="50" viewBox="0 0 50 50" fill="none" xmlns="http://www.w3.org/2000/svg">
<circle cx="25" cy="25" r="25" fill="#333333"/>
<path d="M17.733 30.96C16.8263 30.96 16.033 30.76 15.353 30.36C14.673 29.96 14.1397 29.3534 13.753 28.54C13.3797 27.7134 13.193 26.6734 13.193 25.42C13.193 24.1534 13.373 23.1134 13.733 22.3C14.093 21.4867 14.613 20.88 15.293 20.48C15.973 20.08 16.7863 19.88 17.733 19.88C18.7463 19.88 19.653 20.1134 20.453 20.58C21.2663 21.0334 21.9063 21.6734 22.373 22.5C22.853 23.3267 23.093 24.3 23.093 25.42C23.093 26.5534 22.853 27.5334 22.373 28.36C21.9063 29.1867 21.2663 29.8267 20.453 30.28C19.653 30.7334 18.7463 30.96 17.733 30.96ZM11.373 34.68V20.04H14.353V22.24L14.293 25.44L14.493 28.62V34.68H11.373ZM17.193 28.4C17.713 28.4 18.173 28.28 18.573 28.04C18.9863 27.8 19.313 27.46 19.553 27.02C19.8063 26.5667 19.933 26.0334 19.933 25.42C19.933 24.7934 19.8063 24.26 19.553 23.82C19.313 23.38 18.9863 23.04 18.573 22.8C18.173 22.56 17.713 22.44 17.193 22.44C16.673 22.44 16.2063 22.56 15.793 22.8C15.3797 23.04 15.053 23.38 14.813 23.82C14.573 24.26 14.453 24.7934 14.453 25.42C14.453 26.0334 14.573 26.5667 14.813 27.02C15.053 27.46 15.3797 27.8 15.793 28.04C16.2063 28.28 16.673 28.4 17.193 28.4ZM31.5416 30.96C30.5949 30.96 29.7816 30.76 29.1016 30.36C28.4216 29.96 27.9016 29.3534 27.5416 28.54C27.1816 27.7134 27.0016 26.6734 27.0016 25.42C27.0016 24.1534 27.1883 23.1134 27.5616 22.3C27.9483 21.4867 28.4816 20.88 29.1616 20.48C29.8416 20.08 30.6349 19.88 31.5416 19.88C32.5549 19.88 33.4616 20.1067 34.2616 20.56C35.0749 21.0134 35.7149 21.6534 36.1816 22.48C36.6616 23.3067 36.9016 24.2867 36.9016 25.42C36.9016 26.54 36.6616 27.5134 36.1816 28.34C35.7149 29.1667 35.0749 29.8134 34.2616 30.28C33.4616 30.7334 32.5549 30.96 31.5416 30.96ZM25.1816 30.8V15.96H28.3016V22.22L28.1016 25.4L28.1616 28.6V30.8H25.1816ZM31.0016 28.4C31.5216 28.4 31.9816 28.28 32.3816 28.04C32.7949 27.8 33.1216 27.46 33.3616 27.02C33.6149 26.5667 33.7416 26.0334 33.7416 25.42C33.7416 24.7934 33.6149 24.26 33.3616 23.82C33.1216 23.38 32.7949 23.04 32.3816 22.8C31.9816 22.56 31.5216 22.44 31.0016 22.44C30.4816 22.44 30.0149 22.56 29.6016 22.8C29.1883 23.04 28.8616 23.38 28.6216 23.82C28.3816 24.26 28.2616 24.7934 28.2616 25.42C28.2616 26.0334 28.3816 26.5667 28.6216 27.02C28.8616 27.46 29.1883 27.8 29.6016 28.04C30.0149 28.28 30.4816 28.4 31.0016 28.4ZM40.053 30.96C39.5197 30.96 39.0597 30.78 38.673 30.42C38.2997 30.0467 38.113 29.5734 38.113 29C38.113 28.4267 38.2997 27.9667 38.673 27.62C39.0597 27.26 39.5197 27.08 40.053 27.08C40.5997 27.08 41.0597 27.26 41.433 27.62C41.8063 27.9667 41.993 28.4267 41.993 29C41.993 29.5734 41.8063 30.0467 41.433 30.42C41.0597 30.78 40.5997 30.96 40.053 30.96Z" fill="white"/>
</svg>
