<svg width="35" height="35" viewBox="0 0 35 35" fill="none" xmlns="http://www.w3.org/2000/svg">
<path d="M17.4996 5.97305L19.1298 15.8698L29.0266 17.5L19.1298 19.1302L17.4996 29.0269L15.8694 19.1302L5.97266 17.5L15.8694 15.8698L17.4996 5.97305Z" fill="#333333"/>
<path fill-rule="evenodd" clip-rule="evenodd" d="M17.5 34.5808C26.9335 34.5808 34.5808 26.9335 34.5808 17.5C34.5808 8.06651 26.9335 0.419162 17.5 0.419162C8.06651 0.419162 0.419162 8.06651 0.419162 17.5C0.419162 26.9335 8.06651 34.5808 17.5 34.5808ZM17.5 35C27.165 35 35 27.165 35 17.5C35 7.83502 27.165 0 17.5 0C7.83502 0 0 7.83502 0 17.5C0 27.165 7.83502 35 17.5 35Z" fill="#333333"/>
</svg>
