<svg width="153" height="41" viewBox="0 0 153 41" fill="none" xmlns="http://www.w3.org/2000/svg">
<path d="M151.981 34.2949C152.372 33.9044 152.372 33.2712 151.981 32.8807L145.617 26.5167C145.227 26.1262 144.594 26.1262 144.203 26.5167C143.813 26.9072 143.813 27.5404 144.203 27.9309L149.86 33.5878L144.203 39.2446C143.813 39.6351 143.813 40.2683 144.203 40.6588C144.594 41.0494 145.227 41.0494 145.617 40.6588L151.981 34.2949ZM0.722656 34.5878L151.274 34.5878V32.5878L0.722656 32.5878L0.722656 34.5878Z" fill="white"/>
<path  d="M4.31366 10.4117V14.2877H8.87366V16.0547H4.31366V20.1017H9.44366V21.8687H2.14766V8.64465H9.44366V10.4117H4.31366ZM16.5955 16.5677L19.9775 21.8687H17.5265L15.2655 18.3157L13.1375 21.8687H10.8765L14.2585 16.7197L10.8765 11.3997H13.3275L15.5885 14.9527L17.7165 11.3997H19.9775L16.5955 16.5677ZM23.759 12.9387C24.1263 12.4573 24.6266 12.052 25.26 11.7227C25.8933 11.3933 26.609 11.2287 27.407 11.2287C28.319 11.2287 29.1486 11.4567 29.896 11.9127C30.656 12.356 31.2513 12.983 31.682 13.7937C32.1126 14.6043 32.328 15.5353 32.328 16.5867C32.328 17.638 32.1126 18.5817 31.682 19.4177C31.2513 20.241 30.656 20.887 29.896 21.3557C29.1486 21.8117 28.319 22.0397 27.407 22.0397C26.609 22.0397 25.8996 21.8813 25.279 21.5647C24.6583 21.2353 24.1516 20.83 23.759 20.3487V26.8467H21.593V11.3997H23.759V12.9387ZM30.124 16.5867C30.124 15.8647 29.972 15.244 29.668 14.7247C29.3766 14.1927 28.984 13.7937 28.49 13.5277C28.0086 13.249 27.4893 13.1097 26.932 13.1097C26.3873 13.1097 25.868 13.249 25.374 13.5277C24.8926 13.8063 24.5 14.2117 24.196 14.7437C23.9046 15.2757 23.759 15.9027 23.759 16.6247C23.759 17.3467 23.9046 17.98 24.196 18.5247C24.5 19.0567 24.8926 19.462 25.374 19.7407C25.868 20.0193 26.3873 20.1587 26.932 20.1587C27.4893 20.1587 28.0086 20.0193 28.49 19.7407C28.984 19.4493 29.3766 19.0313 29.668 18.4867C29.972 17.942 30.124 17.3087 30.124 16.5867ZM36.6359 7.80865V21.8687H34.4699V7.80865H36.6359ZM44.0207 22.0397C43.0327 22.0397 42.1397 21.818 41.3417 21.3747C40.5437 20.9187 39.9167 20.2853 39.4607 19.4747C39.0047 18.6513 38.7767 17.7013 38.7767 16.6247C38.7767 15.5607 39.011 14.617 39.4797 13.7937C39.9484 12.9703 40.588 12.337 41.3987 11.8937C42.2094 11.4503 43.115 11.2287 44.1157 11.2287C45.1164 11.2287 46.022 11.4503 46.8327 11.8937C47.6434 12.337 48.283 12.9703 48.7517 13.7937C49.2204 14.617 49.4547 15.5607 49.4547 16.6247C49.4547 17.6887 49.214 18.6323 48.7327 19.4557C48.2514 20.279 47.5927 20.9187 46.7567 21.3747C45.9334 21.818 45.0214 22.0397 44.0207 22.0397ZM44.0207 20.1587C44.578 20.1587 45.0974 20.0257 45.5787 19.7597C46.0727 19.4937 46.4717 19.0947 46.7757 18.5627C47.0797 18.0307 47.2317 17.3847 47.2317 16.6247C47.2317 15.8647 47.086 15.225 46.7947 14.7057C46.5034 14.1737 46.117 13.7747 45.6357 13.5087C45.1544 13.2427 44.635 13.1097 44.0777 13.1097C43.5204 13.1097 43.001 13.2427 42.5197 13.5087C42.051 13.7747 41.6774 14.1737 41.3987 14.7057C41.12 15.225 40.9807 15.8647 40.9807 16.6247C40.9807 17.752 41.2657 18.626 41.8357 19.2467C42.4184 19.8547 43.1467 20.1587 44.0207 20.1587ZM53.7619 12.9197C54.0786 12.3877 54.4966 11.976 55.0159 11.6847C55.5479 11.3807 56.1749 11.2287 56.8969 11.2287V13.4707H56.3459C55.4972 13.4707 54.8512 13.686 54.4079 14.1167C53.9772 14.5473 53.7619 15.2947 53.7619 16.3587V21.8687H51.5959V11.3997H53.7619V12.9197ZM68.4829 16.3777C68.4829 16.7703 68.4576 17.125 68.4069 17.4417H60.4079C60.4712 18.2777 60.7816 18.949 61.3389 19.4557C61.8962 19.9623 62.5802 20.2157 63.3909 20.2157C64.5562 20.2157 65.3796 19.728 65.8609 18.7527H68.1979C67.8812 19.7153 67.3049 20.507 66.4689 21.1277C65.6456 21.7357 64.6196 22.0397 63.3909 22.0397C62.3902 22.0397 61.4909 21.818 60.6929 21.3747C59.9076 20.9187 59.2869 20.2853 58.8309 19.4747C58.3876 18.6513 58.1659 17.7013 58.1659 16.6247C58.1659 15.548 58.3812 14.6043 58.8119 13.7937C59.2552 12.9703 59.8696 12.337 60.6549 11.8937C61.4529 11.4503 62.3649 11.2287 63.3909 11.2287C64.3789 11.2287 65.2592 11.444 66.0319 11.8747C66.8046 12.3053 67.4062 12.9133 67.8369 13.6987C68.2676 14.4713 68.4829 15.3643 68.4829 16.3777ZM66.2219 15.6937C66.2092 14.8957 65.9242 14.256 65.3669 13.7747C64.8096 13.2933 64.1192 13.0527 63.2959 13.0527C62.5486 13.0527 61.9089 13.2933 61.3769 13.7747C60.8449 14.2433 60.5282 14.883 60.4269 15.6937H66.2219Z" fill="white"/>
</svg>
