<svg width="63" height="27" viewBox="0 0 63 27" fill="none" xmlns="http://www.w3.org/2000/svg">
<path d="M62.5303 21.5303C62.8232 21.2374 62.8232 20.7626 62.5303 20.4697L57.7574 15.6967C57.4645 15.4038 56.9896 15.4038 56.6967 15.6967C56.4038 15.9896 56.4038 16.4645 56.6967 16.7574L60.9393 21L56.6967 25.2426C56.4038 25.5355 56.4038 26.0104 56.6967 26.3033C56.9896 26.5962 57.4645 26.5962 57.7574 26.3033L62.5303 21.5303ZM0 21.75H62V20.25H0V21.75Z" fill="#181716"/>
<path d="M9.744 5.228L6.16 15H3.78L0.196 5.228H2.296L4.984 12.998L7.658 5.228H9.744ZM11.9131 6.32C11.5678 6.32 11.2785 6.21267 11.0451 5.998C10.8211 5.774 10.7091 5.49867 10.7091 5.172C10.7091 4.84533 10.8211 4.57467 11.0451 4.36C11.2785 4.136 11.5678 4.024 11.9131 4.024C12.2585 4.024 12.5431 4.136 12.7671 4.36C13.0005 4.57467 13.1171 4.84533 13.1171 5.172C13.1171 5.49867 13.0005 5.774 12.7671 5.998C12.5431 6.21267 12.2585 6.32 11.9131 6.32ZM12.8791 7.244V15H10.9191V7.244H12.8791ZM22.0256 10.954C22.0256 11.234 22.0069 11.486 21.9696 11.71H16.2996C16.3463 12.27 16.5423 12.7087 16.8876 13.026C17.2329 13.3433 17.6576 13.502 18.1616 13.502C18.8896 13.502 19.4076 13.1893 19.7156 12.564H21.8296C21.6056 13.3107 21.1763 13.9267 20.5416 14.412C19.9069 14.888 19.1276 15.126 18.2036 15.126C17.4569 15.126 16.7849 14.9627 16.1876 14.636C15.5996 14.3 15.1376 13.8287 14.8016 13.222C14.4749 12.6153 14.3116 11.9153 14.3116 11.122C14.3116 10.3193 14.4749 9.61467 14.8016 9.008C15.1283 8.40133 15.5856 7.93467 16.1736 7.608C16.7616 7.28133 17.4383 7.118 18.2036 7.118C18.9409 7.118 19.5989 7.27667 20.1776 7.594C20.7656 7.91133 21.2183 8.364 21.5356 8.952C21.8623 9.53067 22.0256 10.198 22.0256 10.954ZM19.9956 10.394C19.9863 9.89 19.8043 9.48867 19.4496 9.19C19.0949 8.882 18.6609 8.728 18.1476 8.728C17.6623 8.728 17.2516 8.87733 16.9156 9.176C16.5889 9.46533 16.3883 9.87133 16.3136 10.394H19.9956ZM34.2082 7.244L31.9402 15H29.8262L28.4122 9.582L26.9982 15H24.8702L22.5882 7.244H24.5762L25.9482 13.152L27.4322 7.244H29.5042L30.9602 13.138L32.3322 7.244H34.2082ZM44.5967 13.138H40.7047L40.0607 15H38.0027L41.5167 5.214H43.7987L47.3127 15H45.2407L44.5967 13.138ZM44.0647 11.57L42.6507 7.482L41.2367 11.57H44.0647ZM50.5862 4.64V15H48.6262V4.64H50.5862ZM54.4826 4.64V15H52.5226V4.64H54.4826Z" fill="black"/>
</svg>
